# xmcd
#
# Track frame offsets:
#	150
#	13835
#	23138
#	35306
#	45368
#	49442
#	72225
#	76078
#	96945
#	109449
#	119273
#	132678
#	138023
#	160836
#	165449
#	183238
#
# Disc length: 2511 seconds
#
# Revision: 4
# Processed by: cddbd v1.5.2PL0 Copyright (c) Steve Scherf et al.
# Submitted via: EasyCDDAExtractor 9.1.3.1
#
DISCID=d009cd10
DTITLE=Dead Brothers - Dead Music for Dead People
DYEAR=2000
DGENRE=Blues
TTITLE0=Dead Brothers Stomp
TTITLE1=I've Always Know
TTITLE2=Farmer Boy
TTITLE3=Besame Mucho
TTITLE4=Roger
TTITLE5=She Collects Postcards
TTITLE6=Banjo Villa Against Tarass Boulba
TTITLE7=Crying
TTITLE8=Hora
TTITLE9=Allons Aux Paquis!
TTITLE10=Somewhere Between Dog and Wolf
TTITLE11=Buy It!
TTITLE12=Good Time Religion
TTITLE13=Orally
TTITLE14=Ramblin Man
TTITLE15=Bonus
EXTD=
EXTT0=
EXTT1=
EXTT2=
EXTT3=
EXTT4=
EXTT5=
EXTT6=
EXTT7=
EXTT8=
EXTT9=
EXTT10=
EXTT11=
EXTT12=
EXTT13=
EXTT14=
EXTT15=
PLAYORDER=
